<?xml version="1.0" encoding="UTF-8"?>
<svg width="14px" height="19px" viewBox="0 0 14 19" version="1.1" xmlns="http://www.w3.org/2000/svg" xmlns:xlink="http://www.w3.org/1999/xlink">
    <!-- Generator: Sketch 64 (93537) - https://sketch.com -->
    <title>Page 1</title>
    <desc>Created with Sketch.</desc>
    <g id="Page-1" stroke="none" stroke-width="1" fill="none" fill-rule="evenodd">
        <g id="Home-" transform="translate(-135.000000, -35.000000)">
            <rect id="Rectangle" fill="none" x="0" y="0" width="375" height="812"></rect>
            <g id="Group-31" transform="translate(25.000000, 26.000000)">
                <g id="Group-3">
                    <g id="Group-4" transform="translate(105.000000, 6.000000)">
                        <g id="Group-32">
                            <rect id="Rectangle" x="0" y="0" width="24" height="24"></rect>
                            <g id="pin-(1)" transform="translate(5.000000, 3.000000)" fill-rule="nonzero">
                                <path d="M6.6796875,0 C2.99465234,0 0,2.99472656 0,6.6796875 C0,7.9265625 0.345191406,9.14007617 1.00199023,10.1865605 L6.22687891,18.7370801 C6.31601562,18.8818066 6.44960938,18.9709062 6.60550586,18.9931719 C6.81695508,19.0265332 7.05085547,18.9375078 7.1732793,18.7259844 L12.413123,10.0974609 C13.0364863,9.0732793 13.359375,7.88206836 13.359375,6.6796875 C13.359375,2.99472656 10.3647227,0 6.6796875,0 Z M6.6796875,10.0195312 C4.80944922,10.0195312 3.33984375,8.50546875 3.33984375,6.6796875 C3.33984375,4.84273633 4.84273633,3.33984375 6.6796875,3.33984375 C8.51663867,3.33984375 10.0195312,4.84273633 10.0195312,6.6796875 C10.0195312,8.49433594 8.57222852,10.0195312 6.6796875,10.0195312 Z" id="Shape" fill="#4485FD"></path>
                                <path d="M6.6796875,0 L6.6796875,3.33984375 C8.51663867,3.33984375 10.0195312,4.84273633 10.0195312,6.6796875 C10.0195312,8.49433594 8.57222852,10.0195312 6.6796875,10.0195312 L6.6796875,18.9998192 C6.86965039,19.004082 7.06499414,18.9130156 7.17324219,18.7259844 L12.4130859,10.0974609 C13.0364863,9.0732793 13.359375,7.88206836 13.359375,6.6796875 C13.359375,2.99472656 10.3647227,0 6.6796875,0 Z" id="Path" fill="#4476FD"></path>
                            </g>
                        </g>
                    </g>
                </g>
            </g>
        </g>
    </g>
</svg>